<?xml version="1.0" encoding="UTF-8" standalone="no"?>
<svg
   xmlns:dc="http://purl.org/dc/elements/1.1/"
   xmlns:cc="http://creativecommons.org/ns#"
   xmlns:rdf="http://www.w3.org/1999/02/22-rdf-syntax-ns#"
   xmlns:svg="http://www.w3.org/2000/svg"
   xmlns="http://www.w3.org/2000/svg"
   viewBox="0 0 1322 137"
   height="137"
   width="1322"
   version="1.1"
   id="svg2">
  <metadata
     id="metadata8">
    <rdf:RDF>
      <cc:Work
         rdf:about="">
        <dc:format>image/svg+xml</dc:format>
        <dc:type
           rdf:resource="http://purl.org/dc/dcmitype/StillImage" />
        <dc:title></dc:title>
      </cc:Work>
    </rdf:RDF>
  </metadata>
  <defs
     id="defs6" />
  <path
     style="fill:#fefefe"
     d="m 763.26742,69.203607 0,-58.02745 43,0 43,0 0,43.5 0,43.500003 -28.4725,0 -28.4726,0 -0.2774,14.25 -0.2775,14.25 -14.25,0.27746 -14.25,0.27745 z m 56,-14.52745 0,-13.5 -13.5,0 -13.5,0 0,13.5 0,13.5 13.5,0 13.5,0 z m 58,14.5 0,-58 43.5,0 43.5,0 0,58 0,58.000003 -15,0 -15,0 0,-14.5 0,-14.5 -14,0 -14,0 0,14.5 0,14.5 -14.5,0 -14.5,0 z m 57,-14.5 0,-13.5 -14,0 -14,0 0,13.5 0,13.5 14,0 14,0 z m 57.66669,71.833333 c -0.3667,-0.36666 -0.6667,-26.46666 -0.6667,-58.000003 l 0,-57.33333 43.49999,0 43.5,0 0,29 0,29 -14,0 -14,0 0,14 0,14 14,0 14,0 0,15.000003 0,15 -14.5,0 -14.5,0 0,-14.5 0,-14.5 -14,0 -14,0 0,14.5 0,14.5 -14.3333,0 c -7.88329,0 -14.63329,-0.3 -14.99999,-0.66667 z m 57.33329,-71.833333 0,-13.5 -14,0 -14,0 0,13.5 0,13.5 14,0 14,0 z m 86,29.5 0,-43 -14.5,0 -14.5,0 0,-15 0,-15 43.5,0 43.5,0 0,15 0,15 -14.5,0 -14.5,0 0,43 0,43.000003 -14.5,0 -14.5,0 z m 143,28.500003 0,-14.5 -28.5,0 -28.5,0 0,-43.500003 0,-43.5 14.3771,0 14.3772,0 0.737,28.5 0.737,28.5 13.3859,0 13.3858,0 0,-28.5 0,-28.5 15,0 15,0 0,58 0,58.000003 -15,0 -15,0 z M 14.267444,67.676157 l 0,-57.5 43.5,0 43.499996,0 0,14.5 0,14.5 -28.499996,0 -28.5,0 0,28.5 0,28.5 28.5,0 28.499996,0 0,14.500003 0,14.5 -43.499996,0 -43.5,0 z m 115.000006,0 0,-57.5 43.5,0 43.5,0 0,29 0,29 -14.5,0 -14.5,0 0,14 0,14 14.5,0 14.5,0 0,14.500003 0,14.5 -15,0 -15,0 0,-14 0,-14.000003 -13.5,0 -13.5,0 0,14.000003 0,14 -15,0 -15,0 z m 57,-14.5 0,-14 -13.5,0 -13.5,0 0,14 0,14 13.5,0 13.5,0 z m 115,58.000003 0,-14.000003 -28.5,0 -28.5,0 0,-43.5 0,-43.5 14.5,0 14.5,0 0,28.5 0,28.5 14,0 14,0 0,-28.5 0,-28.5 15,0 15,0 0,57.5 0,57.500003 -15,0 -15,0 z m 57,-43.500003 0,-57.5 43.5,0 43.5,0 0,43.5 0,43.5 -28.5,0 -28.5,0 0,14.000003 0,14 -15,0 -15,0 z m 58,-14.5 0,-14 -14,0 -14,0 0,14 0,14 14,0 14,0 z m 86,29 0,-43 -14.5,0 -14.5,0 0,-14.5 0,-14.5 43.5,0 43.5,0 0,14.5 0,14.5 -14.5,0 -14.5,0 0,43 0,43.000003 -14.5,0 -14.5,0 z m 87,-15 0,-58 43.5,0 43.5,0 0,58 0,58.000003 -43.5,0 -43.5,0 z m 58,0 0,-28 -14,0 -14,0 0,28 0,28 14,0 14,0 z"
     id="path3360" />
</svg>
