<?xml version="1.0" encoding="utf-8"?>
<!-- Generator: Adobe Illustrator 16.0.0, SVG Export Plug-In . SVG Version: 6.00 Build 0)  -->
<!DOCTYPE svg PUBLIC "-//W3C//DTD SVG 1.1//EN" "http://www.w3.org/Graphics/SVG/1.1/DTD/svg11.dtd">
<svg version="1.1" id="Layer_1" xmlns="http://www.w3.org/2000/svg" xmlns:xlink="http://www.w3.org/1999/xlink" x="0px" y="0px"
	 width="800px" height="278.268px" viewBox="0 0 800 278.268" enable-background="new 0 0 800 278.268" xml:space="preserve">
<polygon fill="#FFFFFF" points="39.394,11.993 10.729,11.993 10.729,40.698 10.729,69.367 10.729,98.034 10.729,126.734 
	39.394,126.734 68.12,126.734 96.785,126.734 96.785,98.034 68.12,98.034 39.394,98.034 39.394,69.367 39.394,40.698 68.12,40.698 
	96.785,40.698 96.785,11.993 68.12,11.993 "/>
<path fill="#FFFFFF" d="M154.115,11.993H125.45v28.705v28.669v28.667v28.699h28.665V98.034h28.727V69.406h28.665V40.698l0,0V11.993
	h-28.665H154.115z M182.841,40.698V69.33h-28.727V40.698H182.841L182.841,40.698z"/>
<rect x="182.841" y="98.034" fill="#FFFFFF" width="28.665" height="28.699"/>
<polygon fill="#FFFFFF" points="297.564,40.698 297.564,69.33 268.899,69.33 268.899,40.665 268.838,40.665 268.838,11.993 
	240.173,11.993 240.173,40.665 240.173,40.698 240.173,69.33 240.173,98.034 268.838,98.034 268.899,98.034 297.564,98.034 
	297.564,126.734 326.229,126.734 326.229,98.034 326.229,69.367 326.229,40.698 326.229,11.993 297.564,11.993 "/>
<path fill="#FFFFFF" d="M383.555,11.993h-28.661v28.705v28.669v28.667v28.699h28.661V98.034h28.732h28.665V69.33V40.698v-0.033
	V11.993h-28.665H383.555z M412.287,69.33h-28.732V40.698h28.732V69.33z"/>
<polygon fill="#FFFFFF" points="498.294,11.993 469.621,11.993 469.621,40.698 498.294,40.698 498.338,40.698 498.338,69.367 
	498.338,98.034 498.338,126.734 527.007,126.734 527.007,98.034 527.007,69.367 527.007,40.698 555.68,40.698 555.68,11.993 
	527.007,11.993 "/>
<path fill="#FFFFFF" d="M385.818,155.403h-28.665v28.652v28.665v28.714v28.694h28.665v-28.694h28.728v28.694h28.666v-28.694v-28.715
	v-28.664v-28.652h-28.666H385.818L385.818,155.403z M414.546,212.721h-28.728v-28.665h28.728V212.721z"/>
<path fill="#FFFFFF" d="M271.101,155.403h-28.667v28.652v28.665v28.714v28.694h28.667v-28.694h28.718h28.669v-28.715v-28.664v-0.038
	v-28.614h-28.669H271.101z M299.819,212.721h-28.718v-28.665h28.718V212.721z"/>
<polygon fill="#FFFFFF" points="615.265,155.403 586.6,155.403 586.6,184.056 615.265,184.056 615.328,184.056 615.328,212.721 
	615.328,241.435 615.328,270.13 643.993,270.13 643.993,241.435 643.993,212.721 643.993,184.056 672.658,184.056 672.658,155.403 
	643.993,155.403 "/>
<path fill="#FFFFFF" d="M500.545,155.403h-28.664v28.652v28.665v28.714v28.694h28.664v-28.694h28.725V212.76h28.665v-28.664v-0.04
	v-28.652H529.27L500.545,155.403L500.545,155.403z M529.27,184.096v28.625h-28.725v-28.665h28.725V184.096z"/>
<rect x="529.27" y="241.435" fill="#FFFFFF" width="28.665" height="28.694"/>
<rect x="585.646" y="97.955" fill="#FFFFFF" width="85.994" height="28.778"/>
<rect x="700.306" y="69.25" fill="#FFFFFF" width="28.665" height="57.483"/>
<rect x="585.646" y="11.993" fill="#FFFFFF" width="28.663" height="114.74"/>
<rect x="757.584" y="69.25" fill="#FFFFFF" width="28.665" height="57.483"/>
<rect x="642.976" y="69.25" fill="#FFFFFF" width="143.273" height="28.705"/>
<rect x="642.976" y="11.993" fill="#FFFFFF" width="28.665" height="114.74"/>
<rect x="585.646" y="11.993" fill="#FFFFFF" width="85.994" height="28.704"/>
<rect x="127.766" y="241.165" fill="#FFFFFF" width="85.993" height="28.964"/>
<rect x="70.432" y="213.193" fill="#FFFFFF" width="28.669" height="56.937"/>
<rect x="185.094" y="240.572" fill="#FFFFFF" width="28.665" height="29.558"/>
<rect x="13.157" y="212.61" fill="#FFFFFF" width="143.272" height="28.701"/>
<rect x="13.157" y="212.765" fill="#FFFFFF" width="28.664" height="57.364"/>
<rect x="185.094" y="155.135" fill="#FFFFFF" width="28.665" height="114.993"/>
<rect x="127.766" y="155.135" fill="#FFFFFF" width="28.663" height="114.994"/>
<rect x="127.766" y="155.135" fill="#FFFFFF" width="85.993" height="28.693"/>
<rect x="701.323" y="155.403" fill="#FFFFFF" width="28.669" height="86.032"/>
<rect x="758.708" y="155.403" fill="#FFFFFF" width="28.669" height="114.728"/>
<rect x="701.323" y="212.766" fill="#FFFFFF" width="85.971" height="28.705"/>
</svg>
